<svg xmlns="http://www.w3.org/2000/svg" xmlns:xlink="http://www.w3.org/1999/xlink" width="500" zoomAndPan="magnify" viewBox="0 0 375 374.999991" height="500" preserveAspectRatio="xMidYMid meet" version="1.0"><defs><g/></defs><g fill="#abdf12" fill-opacity="1"><g transform="translate(21.530028, 291.999552)"><g><path d="M 163.601562 -3.125 L 84.40625 -206.847656 C 83.625 -208.929688 79.976562 -208.929688 79.195312 -206.847656 L 0.261719 -3.125 C -0.519531 -1.5625 0.519531 0 2.867188 0 L 38.554688 0 C 39.597656 0 40.902344 -0.519531 41.160156 -1.5625 L 81.800781 -117.75 L 122.960938 -1.5625 C 123.222656 -0.519531 124.523438 0 125.304688 0 L 161.257812 0 C 163.082031 0 164.382812 -1.5625 163.601562 -3.125 Z M 163.601562 -3.125 "/></g></g></g><g fill="#abdf12" fill-opacity="1"><g transform="translate(179.828884, 291.999552)"><g><path d="M 166.207031 -3.90625 L 82.582031 -102.382812 L 165.425781 -204.503906 C 167.25 -206.324219 165.945312 -208.410156 163.082031 -208.410156 L 120.617188 -208.410156 C 120.097656 -208.410156 118.53125 -207.890625 118.273438 -207.628906 L 39.859375 -111.238281 L 39.859375 -206.066406 C 39.859375 -207.109375 38.816406 -208.410156 37.253906 -208.410156 L 2.867188 -208.410156 C 1.300781 -208.410156 0 -207.109375 0 -206.066406 L 0 -12.765625 C 0 -12.765625 50.800781 -70.339844 56.011719 -75.808594 L 116.710938 -0.78125 C 116.96875 -0.519531 118.53125 0 119.054688 0 L 163.863281 0 C 166.46875 0 167.769531 -1.824219 166.207031 -3.90625 Z M 166.207031 -3.90625 "/></g></g></g></svg>